<svg xmlns="http://www.w3.org/2000/svg" viewBox="0 0 840 560" role="img" aria-label="HR illustration">
  <defs>
    <linearGradient id="bg" x1="0" y1="0" x2="1" y2="1">
      <stop offset="0%" stop-color="#fff4e6"/>
      <stop offset="100%" stop-color="#ffe8cc"/>
    </linearGradient>
    <linearGradient id="panel" x1="0" y1="0" x2="0" y2="1">
      <stop offset="0%" stop-color="#ffffff"/>
      <stop offset="100%" stop-color="#fff7ef"/>
    </linearGradient>
  </defs>

  <rect x="20" y="20" width="800" height="520" rx="28" fill="url(#bg)"/>

  <rect x="70" y="90" width="340" height="380" rx="24" fill="url(#panel)" stroke="#ffd3a3"/>
  <rect x="430" y="90" width="340" height="180" rx="24" fill="url(#panel)" stroke="#ffd3a3"/>
  <rect x="430" y="290" width="340" height="180" rx="24" fill="url(#panel)" stroke="#ffd3a3"/>

  <circle cx="145" cy="170" r="36" fill="#f57c00" opacity="0.2"/>
  <rect x="200" y="145" width="180" height="16" rx="8" fill="#f57c00" opacity="0.55"/>
  <rect x="200" y="178" width="130" height="12" rx="6" fill="#f57c00" opacity="0.35"/>

  <rect x="115" y="240" width="250" height="14" rx="7" fill="#f57c00" opacity="0.28"/>
  <rect x="115" y="270" width="210" height="14" rx="7" fill="#f57c00" opacity="0.25"/>
  <rect x="115" y="300" width="240" height="14" rx="7" fill="#f57c00" opacity="0.22"/>
  <rect x="115" y="330" width="170" height="14" rx="7" fill="#f57c00" opacity="0.18"/>

  <circle cx="488" cy="160" r="24" fill="#f57c00" opacity="0.2"/>
  <rect x="530" y="145" width="205" height="14" rx="7" fill="#f57c00" opacity="0.48"/>
  <rect x="530" y="172" width="135" height="12" rx="6" fill="#f57c00" opacity="0.3"/>

  <circle cx="488" cy="360" r="24" fill="#f57c00" opacity="0.2"/>
  <rect x="530" y="345" width="185" height="14" rx="7" fill="#f57c00" opacity="0.48"/>
  <rect x="530" y="372" width="155" height="12" rx="6" fill="#f57c00" opacity="0.3"/>

  <circle cx="730" cy="80" r="18" fill="#f57c00" opacity="0.18"/>
  <circle cx="760" cy="505" r="14" fill="#f57c00" opacity="0.22"/>
  <circle cx="60" cy="505" r="10" fill="#f57c00" opacity="0.2"/>
</svg>
