<svg xmlns="http://www.w3.org/2000/svg" viewBox="0 0 220 220" role="img" aria-label="RevWorkforce logo">
  <defs>
    <linearGradient id="bg" x1="0" x2="1" y1="0" y2="1">
      <stop offset="0%" stop-color="#ffb74d"/>
      <stop offset="100%" stop-color="#f57c00"/>
    </linearGradient>
    <linearGradient id="inner" x1="0" x2="1" y1="0" y2="1">
      <stop offset="0%" stop-color="#ffffff" stop-opacity="0.98"/>
      <stop offset="100%" stop-color="#fff3e0" stop-opacity="0.98"/>
    </linearGradient>
  </defs>

  <rect x="12" y="12" width="196" height="196" rx="44" fill="url(#bg)"/>
  <rect x="30" y="30" width="160" height="160" rx="34" fill="url(#inner)"/>

  <path d="M62 152V68h44c20 0 32 12 32 28 0 11-6 20-16 24l20 32h-22l-17-28H84v28H62zm22-47h20c8 0 13-5 13-11s-5-10-13-10H84v21z"
        fill="#f57c00"/>

  <path d="M142 68h20l15 55 15-55h20l-25 84h-20l-25-84z" fill="#d86c00" transform="translate(-20 0)"/>

  <rect x="38" y="170" width="144" height="8" rx="4" fill="#f57c00" opacity="0.25"/>
</svg>
